<?xml version="1.0" encoding="UTF-8" standalone="no"?>
<!-- Uploaded to: SVG Repo, www.svgrepo.com, Transformed by: SVG Repo Mixer Tools -->

<svg
   fill="#000000"
   height="64px"
   width="64px"
   version="1.1"
   viewBox="0 0 100 100"
   xml:space="preserve"
   id="svg6"
   sodipodi:docname="along.svg"
   inkscape:version="1.4 (e7c3feb1, 2024-10-09)"
   xmlns:inkscape="http://www.inkscape.org/namespaces/inkscape"
   xmlns:sodipodi="http://sodipodi.sourceforge.net/DTD/sodipodi-0.dtd"
   xmlns="http://www.w3.org/2000/svg"
   xmlns:svg="http://www.w3.org/2000/svg"><defs
   id="defs6" /><sodipodi:namedview
   id="namedview6"
   pagecolor="#ffffff"
   bordercolor="#000000"
   borderopacity="0.25"
   inkscape:showpageshadow="2"
   inkscape:pageopacity="0.0"
   inkscape:pagecheckerboard="0"
   inkscape:deskcolor="#d1d1d1"
   inkscape:zoom="9.9889022"
   inkscape:cx="31.38483"
   inkscape:cy="24.377053"
   inkscape:window-width="1640"
   inkscape:window-height="1004"
   inkscape:window-x="149"
   inkscape:window-y="48"
   inkscape:window-maximized="0"
   inkscape:current-layer="turf-along" />

<g
   id="SVGRepo_bgCarrier"
   stroke-width="0" />

<g
   id="SVGRepo_tracerCarrier"
   stroke-linecap="round"
   stroke-linejoin="round" />

<g
   id="SVGRepo_iconCarrier"> <g
   id="turf-along">        <path
   id="path8"
   style="stroke-width:1.21722"
   d="M 85.116577,22.946167 60.580444,40.127563 c 0.38208,0.319871 0.747659,0.666024 1.095581,1.034546 a 13.059459,13.059459 0 0 1 0.02136,0.02136 13.059459,13.059459 0 0 1 0.01831,0.02441 c 0.414418,0.442982 0.804476,0.91459 1.159668,1.416015 0.110448,0.159581 0.214177,0.324662 0.317383,0.488282 a 13.059459,13.059459 0 0 1 0.04273,0.06409 c 0.08312,0.133475 0.162918,0.270044 0.241088,0.405883 a 13.059459,13.059459 0 0 1 0.0061,0.01526 13.059459,13.059459 0 0 1 0.149536,0.262451 13.059459,13.059459 0 0 1 0,0.0031 13.059459,13.059459 0 0 1 0.01526,0.02747 c 0.06144,0.113201 0.122268,0.227206 0.180054,0.341797 a 13.059459,13.059459 0 0 1 0.161743,0.338745 13.059459,13.059459 0 0 1 0.195312,0.430298 c 0.0055,0.0127 0.01293,0.02388 0.01831,0.03662 a 13.059459,13.059459 0 0 1 0.02747,0.07935 13.059459,13.059459 0 0 1 0.183105,0.454711 c 0.002,0.0055 0.0038,0.01292 0.0061,0.01831 0.0067,0.01552 0.01563,0.02998 0.02136,0.04578 l 20.675663,-14.52337 z" /><path
   id="path1"
   style="stroke-width:1.21722"
   d="M 39.923096,54.592896 19.573975,68.884277 v 8.166504 L 43.780518,60.101318 a 13.059459,13.059459 0 0 1 -2.307129,-2.490234 13.059459,13.059459 0 0 1 -1.550293,-3.018188 z" /></g> <g
   id="Layer_1"> </g> </g>

</svg>
