<?xml version="1.0" encoding="UTF-8" standalone="no"?>
<svg
   width="800px"
   height="800px"
   viewBox="0 0 64 64"
   aria-hidden="true"
   role="img"
   class="iconify iconify--emojione-monotone"
   preserveAspectRatio="xMidYMid meet"
   version="1.1"
   id="svg1"
   sodipodi:docname="round_random.svg"
   inkscape:version="1.4 (e7c3feb1, 2024-10-09)"
   xmlns:inkscape="http://www.inkscape.org/namespaces/inkscape"
   xmlns:sodipodi="http://sodipodi.sourceforge.net/DTD/sodipodi-0.dtd"
   xmlns="http://www.w3.org/2000/svg"
   xmlns:svg="http://www.w3.org/2000/svg">
  <defs
     id="defs1" />
  <sodipodi:namedview
     id="namedview1"
     pagecolor="#ffffff"
     bordercolor="#000000"
     borderopacity="0.25"
     inkscape:showpageshadow="2"
     inkscape:pageopacity="0.0"
     inkscape:pagecheckerboard="0"
     inkscape:deskcolor="#d1d1d1"
     inkscape:zoom="0.92085335"
     inkscape:cx="379.53926"
     inkscape:cy="476.73172"
     inkscape:window-width="1712"
     inkscape:window-height="1027"
     inkscape:window-x="144"
     inkscape:window-y="111"
     inkscape:window-maximized="0"
     inkscape:current-layer="svg1"
     showgrid="true">
    <inkscape:grid
       id="grid6"
       units="px"
       originx="0"
       originy="0"
       spacingx="0.08"
       spacingy="0.08"
       empcolor="#0099e5"
       empopacity="0.30196078"
       color="#0099e5"
       opacity="0.14901961"
       empspacing="5"
       enabled="true"
       visible="true" />
  </sodipodi:namedview>
  <path
     d="m 31.542969,7.1776562 c -0.423147,0.00806 -0.848255,0.026867 -1.275156,0.056719 -13.660861,0.9552604 -23.9891672,12.836639 -23.0339067,26.4975 0.348967,4.990462 2.1608752,9.53226 4.9801567,13.245625 l 1.990468,-1.990469 C 11.841726,41.752134 10.328387,37.834815 10.027813,33.536406 9.1781098,21.385092 18.311811,10.877984 30.463125,10.028281 c 0.379729,-0.02655 0.757946,-0.043358 1.134219,-0.050625 4.976013,-0.096101 9.625303,1.4799827 13.388593,4.2279687 l 1.992344,-1.992344 C 42.672936,8.9502168 37.294498,7.0681527 31.542969,7.1776562 Z m 20.245625,9.8421878 -1.993281,1.993281 c 2.362604,3.234788 3.875533,7.152255 4.176093,11.450469 0.849703,12.151313 -8.283998,22.658578 -20.435312,23.508281 -5.401364,0.3777 -10.475117,-1.220831 -14.522969,-4.176562 l -1.9875,1.987499 c 4.621928,3.502658 10.476762,5.418545 16.705781,4.982969 13.660861,-0.95526 23.989167,-12.836639 23.033906,-26.4975 -0.348969,-4.990494 -2.157396,-9.535063 -4.976718,-13.248437 z"
     style=""
     id="path22" />
  <path
     d="M 14.534366,54.620928 54.620929,14.534365 49.465634,9.3790709 9.3790718,49.465633 Z"
     style="baseline-shift:baseline;display:inline;overflow:visible;vector-effect:none;fill:#ffffff;fill-opacity:1;stroke-width:1.03544;enable-background:accumulate;stop-color:#000000;stop-opacity:1"
     id="path21" />
  <path
     id="rect1"
     style="fill:#000000;stroke:#000000;stroke-width:1.6;stroke-dasharray:none"
     d="m 44.230998,4.7225416 -1.441945,0.3863686 1.957883,7.3069238 -7.306924,1.957883 0.386365,1.44195 7.30693,-1.957888 1.441946,-0.386366 -0.386369,-1.441947 z" />
  <path
     id="path1"
     style="fill:#000000;stroke:#000000;stroke-width:1.6;stroke-dasharray:none"
     d="m 19.911574,59.142293 1.441945,-0.386367 -1.957881,-7.306922 7.306924,-1.95789 -0.386365,-1.441948 -7.30693,1.957889 -1.441945,0.386365 0.386369,1.441947 z" />
</svg>
